<svg width="132" height="132" viewBox="0 0 132 132" fill="none" xmlns="http://www.w3.org/2000/svg">
<circle cx="66" cy="66" r="66" fill="#FAE3E4"/>
<path d="M12.0996 66C12.0996 36.2318 36.2315 12.1 65.9996 12.1C95.7678 12.1 119.9 36.2318 119.9 66C119.9 95.7681 95.7678 119.9 65.9996 119.9C36.2315 119.9 12.0996 95.7681 12.0996 66Z" fill="#DD101E"/>
<path d="M87.0973 50.9394C86.805 50.6447 86.4573 50.4108 86.0741 50.2512C85.691 50.0916 85.28 50.0094 84.865 50.0094C84.4499 50.0094 84.0389 50.0916 83.6558 50.2512C83.2727 50.4108 82.9249 50.6447 82.6326 50.9394L59.2086 74.3949L49.3673 64.5222C49.0638 64.2291 48.7056 63.9986 48.313 63.8439C47.9205 63.6892 47.5013 63.6133 47.0794 63.6206C46.6575 63.6279 46.2412 63.7182 45.8542 63.8864C45.4672 64.0546 45.1172 64.2974 44.824 64.6008C44.5308 64.9043 44.3003 65.2626 44.1456 65.6551C43.9909 66.0477 43.9151 66.4669 43.9224 66.8888C43.9297 67.3107 44.02 67.727 44.1882 68.114C44.3564 68.5009 44.5991 68.851 44.9026 69.1442L56.9762 81.2178C57.2685 81.5125 57.6163 81.7464 57.9994 81.906C58.3825 82.0656 58.7935 82.1478 59.2086 82.1478C59.6236 82.1478 60.0346 82.0656 60.4177 81.906C60.8009 81.7464 61.1486 81.5125 61.4409 81.2178L87.0973 55.5614C87.4165 55.2669 87.6712 54.9096 87.8454 54.5119C88.0196 54.1141 88.1095 53.6846 88.1095 53.2504C88.1095 52.8162 88.0196 52.3867 87.8454 51.9889C87.6712 51.5912 87.4165 51.2339 87.0973 50.9394Z" fill="white"/>
</svg>
