<svg width="20" height="21" viewBox="0 0 20 21" fill="none" xmlns="http://www.w3.org/2000/svg">
<path d="M11.125 10.4999C11.125 10.7224 11.059 10.9399 10.9354 11.1249C10.8118 11.3099 10.6361 11.4541 10.4305 11.5393C10.225 11.6244 9.99875 11.6467 9.78052 11.6033C9.56229 11.5599 9.36184 11.4527 9.2045 11.2954C9.04717 11.1381 8.94002 10.9376 8.89662 10.7194C8.85321 10.5012 8.87549 10.275 8.96064 10.0694C9.04578 9.86382 9.18998 9.68812 9.37498 9.5645C9.55999 9.44089 9.7775 9.37491 10 9.37491C10.2984 9.37491 10.5845 9.49343 10.7955 9.70441C11.0065 9.91539 11.125 10.2015 11.125 10.4999ZM5.875 9.37491C5.6525 9.37491 5.43499 9.44089 5.24998 9.5645C5.06498 9.68812 4.92078 9.86382 4.83564 10.0694C4.75049 10.275 4.72821 10.5012 4.77162 10.7194C4.81502 10.9376 4.92217 11.1381 5.0795 11.2954C5.23684 11.4527 5.43729 11.5599 5.65552 11.6033C5.87375 11.6467 6.09995 11.6244 6.30552 11.5393C6.51109 11.4541 6.68679 11.3099 6.8104 11.1249C6.93402 10.9399 7 10.7224 7 10.4999C7 10.2015 6.88147 9.91539 6.6705 9.70441C6.45952 9.49343 6.17337 9.37491 5.875 9.37491ZM14.125 9.37491C13.9025 9.37491 13.685 9.44089 13.5 9.5645C13.315 9.68812 13.1708 9.86382 13.0856 10.0694C13.0005 10.275 12.9782 10.5012 13.0216 10.7194C13.065 10.9376 13.1722 11.1381 13.3295 11.2954C13.4868 11.4527 13.6873 11.5599 13.9055 11.6033C14.1238 11.6467 14.35 11.6244 14.5555 11.5393C14.7611 11.4541 14.9368 11.3099 15.0604 11.1249C15.184 10.9399 15.25 10.7224 15.25 10.4999C15.25 10.2015 15.1315 9.91539 14.9205 9.70441C14.7095 9.49343 14.4234 9.37491 14.125 9.37491ZM19.75 10.4999C19.7504 12.1832 19.3149 13.838 18.486 15.303C17.6572 16.7681 16.4631 17.9937 15.02 18.8604C13.577 19.7271 11.9341 20.2054 10.2514 20.2488C8.56863 20.2922 6.9033 19.8992 5.4175 19.108L2.22531 20.1721C1.96102 20.2602 1.6774 20.273 1.40624 20.209C1.13509 20.145 0.887113 20.0068 0.69011 19.8098C0.493108 19.6128 0.354864 19.3648 0.290873 19.0937C0.226882 18.8225 0.239673 18.5389 0.327812 18.2746L1.39187 15.0824C0.696389 13.7748 0.307935 12.326 0.255998 10.8458C0.20406 9.36568 0.490005 7.89316 1.09213 6.54003C1.69425 5.1869 2.59672 3.98873 3.73105 3.03646C4.86537 2.08419 6.20173 1.40285 7.63869 1.04416C9.07565 0.685476 10.5754 0.658863 12.0242 0.966346C13.473 1.27383 14.8327 1.90733 16.0001 2.81875C17.1675 3.73018 18.1119 4.89558 18.7616 6.2265C19.4114 7.55741 19.7494 9.01886 19.75 10.4999ZM18.25 10.4999C18.2496 9.2344 17.9582 7.98593 17.3981 6.8511C16.838 5.71627 16.0244 4.7255 15.0201 3.95544C14.0159 3.18537 12.8479 2.65666 11.6067 2.41021C10.3654 2.16375 9.08405 2.20616 7.86178 2.53415C6.63951 2.86215 5.50909 3.46693 4.55796 4.30171C3.60682 5.1365 2.86049 6.1789 2.37668 7.34828C1.89288 8.51766 1.68458 9.78266 1.7679 11.0454C1.85122 12.3082 2.22393 13.5349 2.85719 14.6305C2.91034 14.7225 2.94334 14.8247 2.954 14.9304C2.96467 15.0361 2.95276 15.1429 2.91906 15.2437L1.75 18.7499L5.25625 17.5808C5.33262 17.5548 5.41275 17.5415 5.49344 17.5415C5.62516 17.5417 5.7545 17.5766 5.86844 17.6427C7.12263 18.3684 8.54581 18.7509 9.99479 18.7518C11.4438 18.7527 12.8674 18.372 14.1225 17.6479C15.3776 16.9239 16.4199 15.882 17.1445 14.6272C17.869 13.3724 18.2503 11.9489 18.25 10.4999Z" fill="#212121"/>
</svg>
