<svg width="24" height="25" viewBox="0 0 24 25" fill="none" xmlns="http://www.w3.org/2000/svg">
<path d="M19.2496 9.46906L17.2087 2.53812C17.1629 2.38284 17.0682 2.24652 16.9386 2.14953C16.809 2.05254 16.6515 2.00008 16.4896 2H7.51022C7.34834 2.00008 7.19083 2.05254 7.06123 2.14953C6.93163 2.24652 6.83688 2.38284 6.79115 2.53812L4.75022 9.46906C4.43 10.5314 4.41324 11.6621 4.70183 12.7335C4.99042 13.8048 5.57285 14.7741 6.38334 15.5319C7.71656 16.7822 9.42958 17.5507 11.2499 17.7153V21.5H8.2499C8.05099 21.5 7.86023 21.579 7.71957 21.7197C7.57892 21.8603 7.4999 22.0511 7.4999 22.25C7.4999 22.4489 7.57892 22.6397 7.71957 22.7803C7.86023 22.921 8.05099 23 8.2499 23H15.7499C15.9488 23 16.1396 22.921 16.2802 22.7803C16.4209 22.6397 16.4999 22.4489 16.4999 22.25C16.4999 22.0511 16.4209 21.8603 16.2802 21.7197C16.1396 21.579 15.9488 21.5 15.7499 21.5H12.7499V17.7153C14.5702 17.5506 16.2832 16.782 17.6165 15.5319C18.427 14.7741 19.0094 13.8048 19.298 12.7335C19.5866 11.6621 19.5698 10.5314 19.2496 9.46906ZM8.07084 3.5H15.929L17.8124 9.89281C17.8208 9.92094 17.8283 9.94906 17.8358 9.97719C15.8277 10.6972 13.5665 9.82719 12.3393 9.20563C9.97771 8.01031 8.10272 7.85844 6.7199 8.08719L8.07084 3.5ZM16.5937 14.4359C15.3483 15.6021 13.706 16.2509 11.9999 16.2509C10.2938 16.2509 8.65153 15.6021 7.40615 14.4359C6.79966 13.8676 6.36415 13.141 6.1488 12.3382C5.93344 11.5354 5.94681 10.6884 6.1874 9.89281L6.22959 9.75031C7.35459 9.36969 9.1424 9.26844 11.6605 10.5444C12.7058 11.0741 14.3943 11.7491 16.2008 11.7491C16.8046 11.752 17.4058 11.6699 17.9868 11.5053C17.9103 12.6234 17.4124 13.6707 16.5937 14.4359Z" fill="#212121"/>
</svg>
