<svg width="24" height="25" viewBox="0 0 24 25" fill="none" xmlns="http://www.w3.org/2000/svg">
<path d="M23.6023 8.838L12.3523 2.838C12.2438 2.78022 12.1227 2.75 11.9998 2.75C11.8768 2.75 11.7558 2.78022 11.6473 2.838L0.397266 8.838C0.27727 8.90195 0.176916 8.99732 0.106941 9.1139C0.036965 9.23049 0 9.3639 0 9.49988C0 9.63585 0.036965 9.76926 0.106941 9.88585C0.176916 10.0024 0.27727 10.0978 0.397266 10.1618L2.99977 11.5502V16.0896C2.99899 16.458 3.13457 16.8136 3.38039 17.088C4.60852 18.4558 7.36008 20.7499 11.9998 20.7499C13.5382 20.7626 15.065 20.4839 16.4998 19.9286V22.9999C16.4998 23.1988 16.5788 23.3896 16.7194 23.5302C16.8601 23.6709 17.0509 23.7499 17.2498 23.7499C17.4487 23.7499 17.6394 23.6709 17.7801 23.5302C17.9207 23.3896 17.9998 23.1988 17.9998 22.9999V19.2039C18.9778 18.6394 19.8616 17.9254 20.6191 17.088C20.865 16.8136 21.0005 16.458 20.9998 16.0896V11.5502L23.6023 10.1618C23.7223 10.0978 23.8226 10.0024 23.8926 9.88585C23.9626 9.76926 23.9995 9.63585 23.9995 9.49988C23.9995 9.3639 23.9626 9.23049 23.8926 9.1139C23.8226 8.99732 23.7223 8.90195 23.6023 8.838ZM11.9998 19.2499C7.9432 19.2499 5.55727 17.268 4.49977 16.0896V12.3499L11.6473 16.1618C11.7558 16.2195 11.8768 16.2498 11.9998 16.2498C12.1227 16.2498 12.2438 16.2195 12.3523 16.1618L16.4998 13.9502V18.2946C15.3185 18.8458 13.8298 19.2499 11.9998 19.2499ZM19.4998 16.0858C19.0502 16.5847 18.5472 17.0327 17.9998 17.4218V13.1496L19.4998 12.3499V16.0858ZM17.6248 11.6505L17.6041 11.6383L12.3541 8.838C12.179 8.74853 11.9757 8.73145 11.7881 8.79044C11.6004 8.84943 11.4435 8.97976 11.351 9.15337C11.2586 9.32697 11.238 9.52994 11.2938 9.71855C11.3495 9.90717 11.4771 10.0663 11.6491 10.1618L16.031 12.4999L11.9998 14.6496L2.34352 9.49988L11.9998 4.35019L21.656 9.49988L17.6248 11.6505Z" fill="#212121"/>
</svg>
