<svg width="24" height="25" viewBox="0 0 24 25" fill="none" xmlns="http://www.w3.org/2000/svg">
<path d="M8.625 13.625C8.4025 13.625 8.18499 13.559 7.99999 13.4354C7.81498 13.3118 7.67079 13.1361 7.58564 12.9305C7.50049 12.725 7.47821 12.4988 7.52162 12.2805C7.56503 12.0623 7.67217 11.8618 7.82951 11.7045C7.98684 11.5472 8.1873 11.44 8.40553 11.3966C8.62376 11.3532 8.84996 11.3755 9.05552 11.4606C9.26109 11.5458 9.43679 11.69 9.56041 11.875C9.68402 12.06 9.75 12.2775 9.75 12.5C9.75 12.7984 9.63148 13.0845 9.4205 13.2955C9.20952 13.5065 8.92337 13.625 8.625 13.625ZM15.375 11.375C15.1525 11.375 14.935 11.441 14.75 11.5646C14.565 11.6882 14.4208 11.8639 14.3356 12.0695C14.2505 12.275 14.2282 12.5012 14.2716 12.7195C14.315 12.9377 14.4222 13.1382 14.5795 13.2955C14.7368 13.4528 14.9373 13.56 15.1555 13.6034C15.3738 13.6468 15.6 13.6245 15.8055 13.5394C16.0111 13.4542 16.1868 13.31 16.3104 13.125C16.434 12.94 16.5 12.7225 16.5 12.5C16.5 12.2016 16.3815 11.9155 16.1705 11.7045C15.9595 11.4935 15.6734 11.375 15.375 11.375ZM14.2247 15.6153C13.5567 16.0299 12.7862 16.2496 12 16.2496C11.2138 16.2496 10.4433 16.0299 9.77532 15.6153C9.60699 15.5091 9.40338 15.4742 9.20928 15.5181C9.01518 15.5621 8.84649 15.6814 8.74032 15.8497C8.63415 16.018 8.5992 16.2216 8.64315 16.4157C8.6871 16.6098 8.80636 16.7785 8.97469 16.8847C9.88233 17.4505 10.9304 17.7504 12 17.7504C13.0696 17.7504 14.1177 17.4505 15.0253 16.8847C15.1936 16.7785 15.3129 16.6098 15.3569 16.4157C15.4008 16.2216 15.3659 16.018 15.2597 15.8497C15.1535 15.6814 14.9848 15.5621 14.7907 15.5181C14.5966 15.4742 14.393 15.5091 14.2247 15.6153ZM21.75 12.5C21.75 14.4284 21.1782 16.3134 20.1068 17.9168C19.0355 19.5202 17.5127 20.7699 15.7312 21.5078C13.9496 22.2458 11.9892 22.4389 10.0979 22.0627C8.20656 21.6865 6.46928 20.7579 5.10571 19.3943C3.74215 18.0307 2.81355 16.2934 2.43735 14.4021C2.06114 12.5108 2.25422 10.5504 2.99218 8.76884C3.73013 6.98726 4.97982 5.46451 6.58319 4.39317C8.18657 3.32183 10.0716 2.75 12 2.75C14.585 2.75273 17.0634 3.78084 18.8913 5.60872C20.7192 7.43661 21.7473 9.91498 21.75 12.5ZM20.25 12.5C20.2474 10.3762 19.4269 8.33506 17.9589 6.80036C16.4909 5.26565 14.4881 4.35533 12.3666 4.25844C11.28 5.78562 11.25 7.23875 11.25 7.25C11.25 7.44891 11.329 7.63968 11.4697 7.78033C11.6103 7.92098 11.8011 8 12 8C12.1989 8 12.3897 7.92098 12.5303 7.78033C12.671 7.63968 12.75 7.44891 12.75 7.25C12.75 7.05109 12.829 6.86032 12.9697 6.71967C13.1103 6.57902 13.3011 6.5 13.5 6.5C13.6989 6.5 13.8897 6.57902 14.0303 6.71967C14.171 6.86032 14.25 7.05109 14.25 7.25C14.25 7.84674 14.013 8.41903 13.591 8.84099C13.169 9.26295 12.5967 9.5 12 9.5C11.4033 9.5 10.831 9.26295 10.409 8.84099C9.98706 8.41903 9.75 7.84674 9.75 7.25C9.75 7.18156 9.76219 5.90937 10.5431 4.37844C8.99846 4.65557 7.56488 5.36752 6.41061 6.43074C5.25633 7.49396 4.42926 8.86435 4.02643 10.3811C3.6236 11.8978 3.66173 13.498 4.13635 14.9939C4.61097 16.4897 5.50238 17.8191 6.70599 18.8262C7.9096 19.8332 9.37546 20.4761 10.9316 20.6793C12.4877 20.8825 14.0695 20.6377 15.4914 19.9736C16.9132 19.3095 18.1162 18.2536 18.9591 16.9298C19.8019 15.606 20.2498 14.0693 20.25 12.5Z" fill="#212121"/>
</svg>
