<svg width="21" height="20" viewBox="0 0 21 20" fill="none" xmlns="http://www.w3.org/2000/svg">
<path d="M20.6502 13.363C20.5433 13.2956 20.421 13.2562 20.2948 13.2487C20.1686 13.2412 20.0426 13.2657 19.9283 13.3199C19.6426 13.4551 19.3272 13.5158 19.0117 13.4964C18.6962 13.477 18.3907 13.3781 18.1236 13.209C17.8565 13.0399 17.6365 12.8059 17.4841 12.529C17.3317 12.252 17.2517 11.941 17.2517 11.6249C17.2517 11.3088 17.3317 10.9978 17.4841 10.7208C17.6365 10.4439 17.8565 10.2099 18.1236 10.0408C18.3907 9.87167 18.6962 9.77282 19.0117 9.75343C19.3272 9.73403 19.6426 9.79474 19.9283 9.92989C20.0427 9.98416 20.1689 10.0086 20.2952 10.001C20.4215 9.99331 20.5439 9.95382 20.6508 9.88617C20.7578 9.81851 20.8459 9.72489 20.9069 9.61402C20.968 9.50315 21 9.37864 20.9999 9.25208V5.2499C20.9999 4.85207 20.8419 4.47054 20.5606 4.18923C20.2793 3.90793 19.8977 3.74989 19.4999 3.74989H16.1043C16.1182 3.62539 16.1251 3.50018 16.1249 3.37489C16.1242 2.91395 16.0294 2.458 15.8463 2.03499C15.6631 1.61198 15.3956 1.23083 15.0599 0.914895C14.5952 0.478406 14.0163 0.18249 13.3903 0.0614136C12.7643 -0.0596627 12.1168 -0.000946261 11.5228 0.230764C10.9289 0.462474 10.4127 0.857698 10.034 1.37067C9.65536 1.88364 9.42977 2.49338 9.38334 3.12927C9.36894 3.33612 9.37333 3.54384 9.39647 3.74989H5.99991C5.60208 3.74989 5.22055 3.90793 4.93925 4.18923C4.65794 4.47054 4.49991 4.85207 4.49991 5.2499V8.27052C4.3754 8.25656 4.2502 8.24968 4.12491 8.2499C3.66397 8.25064 3.20804 8.34548 2.78504 8.52861C2.36204 8.71173 1.98088 8.97929 1.66491 9.31489C1.34667 9.65105 1.10163 10.0496 0.945264 10.4853C0.788899 10.921 0.724614 11.3843 0.75647 11.8461C0.810215 12.6593 1.15573 13.4257 1.72947 14.0045C2.30322 14.5832 3.06662 14.9354 3.87928 14.9961C4.08612 15.011 4.29389 15.0066 4.49991 14.983V17.9999C4.49991 18.3977 4.65794 18.7793 4.93925 19.0606C5.22055 19.3419 5.60208 19.4999 5.99991 19.4999H19.4999C19.8977 19.4999 20.2793 19.3419 20.5606 19.0606C20.8419 18.7793 20.9999 18.3977 20.9999 17.9999V13.9977C21 13.871 20.968 13.7463 20.9068 13.6353C20.8457 13.5243 20.7574 13.4307 20.6502 13.363ZM19.4999 17.9999H5.99991V13.9977C5.99995 13.8711 5.96796 13.7466 5.90693 13.6358C5.8459 13.5249 5.7578 13.4313 5.65084 13.3636C5.54388 13.296 5.42155 13.2565 5.29522 13.2488C5.16889 13.2412 5.04268 13.2656 4.92835 13.3199C4.64256 13.4551 4.32725 13.5158 4.01171 13.4964C3.69617 13.477 3.39066 13.3781 3.12358 13.209C2.8565 13.0399 2.63652 12.8059 2.48409 12.529C2.33165 12.252 2.25172 11.941 2.25172 11.6249C2.25172 11.3088 2.33165 10.9978 2.48409 10.7208C2.63652 10.4439 2.8565 10.2099 3.12358 10.0408C3.39066 9.87167 3.69617 9.77282 4.01171 9.75343C4.32725 9.73403 4.64256 9.79474 4.92835 9.92989C5.04268 9.98416 5.16889 10.0086 5.29522 10.001C5.42155 9.99331 5.54388 9.95382 5.65084 9.88617C5.7578 9.81851 5.8459 9.72489 5.90693 9.61402C5.96796 9.50315 5.99995 9.37864 5.99991 9.25208V5.2499H10.3771C10.5037 5.24994 10.6282 5.21795 10.739 5.15692C10.8499 5.09588 10.9435 5.00779 11.0112 4.90083C11.0788 4.79387 11.1183 4.67153 11.126 4.5452C11.1336 4.41888 11.1092 4.29267 11.0549 4.17833C10.9198 3.89255 10.859 3.57723 10.8784 3.2617C10.8978 2.94616 10.9967 2.64065 11.1658 2.37357C11.335 2.10649 11.5689 1.8865 11.8458 1.73407C12.1228 1.58164 12.4338 1.50171 12.7499 1.50171C13.066 1.50171 13.377 1.58164 13.654 1.73407C13.9309 1.8865 14.1649 2.10649 14.334 2.37357C14.5031 2.64065 14.602 2.94616 14.6214 3.2617C14.6408 3.57723 14.5801 3.89255 14.4449 4.17833C14.3906 4.29267 14.3662 4.41888 14.3738 4.5452C14.3815 4.67153 14.421 4.79387 14.4886 4.90083C14.5563 5.00779 14.6499 5.09588 14.7608 5.15692C14.8717 5.21795 14.9962 5.24994 15.1227 5.2499H19.4999V8.27146C19.2939 8.24786 19.0861 8.24346 18.8793 8.25833C18.0064 8.32014 17.1916 8.71858 16.6069 9.36959C16.0221 10.0206 15.713 10.8733 15.7449 11.7478C15.7768 12.6223 16.1471 13.4502 16.7776 14.057C17.4082 14.6637 18.2498 15.0018 19.1249 14.9999C19.2502 15.0001 19.3754 14.9932 19.4999 14.9793V17.9999Z" fill="#212121"/>
</svg>
