<svg width="22" height="19" viewBox="0 0 22 19" fill="none" xmlns="http://www.w3.org/2000/svg">
<path d="M18.875 5C18.3558 5 17.8483 5.15395 17.4166 5.44239C16.985 5.73083 16.6485 6.1408 16.4498 6.62046C16.2511 7.10011 16.1992 7.62791 16.3004 8.13711C16.4017 8.64631 16.6517 9.11404 17.0188 9.48116C17.386 9.84827 17.8537 10.0983 18.3629 10.1996C18.8721 10.3008 19.3999 10.2489 19.8795 10.0502C20.3592 9.8515 20.7692 9.51505 21.0576 9.08337C21.346 8.65169 21.5 8.14418 21.5 7.625C21.5 6.92881 21.2234 6.26113 20.7312 5.76885C20.2389 5.27656 19.5712 5 18.875 5ZM18.875 8.75C18.6525 8.75 18.435 8.68402 18.25 8.5604C18.065 8.43679 17.9208 8.26109 17.8356 8.05552C17.7505 7.84995 17.7282 7.62375 17.7716 7.40552C17.815 7.18729 17.9222 6.98684 18.0795 6.82951C18.2368 6.67217 18.4373 6.56503 18.6555 6.52162C18.8738 6.47821 19.1 6.50049 19.3055 6.58564C19.5111 6.67078 19.6868 6.81498 19.8104 6.99998C19.934 7.18499 20 7.4025 20 7.625C20 7.92337 19.8815 8.20952 19.6705 8.4205C19.4595 8.63147 19.1734 8.75 18.875 8.75ZM5.75 7.625C5.75 7.10582 5.59605 6.59831 5.30761 6.16663C5.01917 5.73495 4.6092 5.3985 4.12955 5.19982C3.64989 5.00114 3.12209 4.94915 2.61289 5.05044C2.10369 5.15173 1.63596 5.40173 1.26885 5.76885C0.901733 6.13596 0.651726 6.60369 0.55044 7.11289C0.449154 7.62209 0.501137 8.14989 0.699817 8.62954C0.898497 9.1092 1.23495 9.51917 1.66663 9.80761C2.09831 10.096 2.60583 10.25 3.125 10.25C3.82119 10.25 4.48887 9.97344 4.98116 9.48116C5.47344 8.98887 5.75 8.32119 5.75 7.625ZM3.125 8.75C2.9025 8.75 2.68499 8.68402 2.49998 8.5604C2.31498 8.43679 2.17079 8.26109 2.08564 8.05552C2.00049 7.84995 1.97821 7.62375 2.02162 7.40552C2.06503 7.18729 2.17217 6.98684 2.32951 6.82951C2.48684 6.67217 2.6873 6.56503 2.90552 6.52162C3.12375 6.47821 3.34995 6.50049 3.55552 6.58564C3.76109 6.67078 3.93679 6.81498 4.0604 6.99998C4.18402 7.18499 4.25 7.4025 4.25 7.625C4.25 7.92337 4.13147 8.20952 3.9205 8.4205C3.70952 8.63147 3.42337 8.75 3.125 8.75ZM7.625 5.75C8.14418 5.75 8.65169 5.59605 9.08337 5.30761C9.51505 5.01917 9.85151 4.6092 10.0502 4.12954C10.2489 3.64989 10.3008 3.12209 10.1996 2.61289C10.0983 2.10369 9.84827 1.63596 9.48116 1.26885C9.11404 0.901733 8.64631 0.651726 8.13711 0.55044C7.62791 0.449154 7.10011 0.501137 6.62046 0.699817C6.1408 0.898497 5.73083 1.23495 5.44239 1.66663C5.15395 2.09831 5 2.60583 5 3.125C5 3.82119 5.27656 4.48887 5.76885 4.98116C6.26113 5.47344 6.92881 5.75 7.625 5.75ZM7.625 2C7.84751 2 8.06501 2.06598 8.25002 2.1896C8.43502 2.31321 8.57922 2.48892 8.66437 2.69448C8.74951 2.90005 8.77179 3.12625 8.72838 3.34448C8.68498 3.56271 8.57783 3.76316 8.4205 3.9205C8.26316 4.07783 8.06271 4.18498 7.84448 4.22838C7.62625 4.27179 7.40005 4.24951 7.19448 4.16437C6.98892 4.07922 6.81321 3.93502 6.6896 3.75002C6.56598 3.56501 6.5 3.34751 6.5 3.125C6.5 2.82663 6.61853 2.54048 6.82951 2.32951C7.04048 2.11853 7.32663 2 7.625 2ZM14.375 5.75C14.8942 5.75 15.4017 5.59605 15.8334 5.30761C16.2651 5.01917 16.6015 4.6092 16.8002 4.12954C16.9989 3.64989 17.0508 3.12209 16.9496 2.61289C16.8483 2.10369 16.5983 1.63596 16.2312 1.26885C15.864 0.901733 15.3963 0.651726 14.8871 0.55044C14.3779 0.449154 13.8501 0.501137 13.3705 0.699817C12.8908 0.898497 12.4808 1.23495 12.1924 1.66663C11.904 2.09831 11.75 2.60583 11.75 3.125C11.75 3.82119 12.0266 4.48887 12.5188 4.98116C13.0111 5.47344 13.6788 5.75 14.375 5.75ZM14.375 2C14.5975 2 14.815 2.06598 15 2.1896C15.185 2.31321 15.3292 2.48892 15.4144 2.69448C15.4995 2.90005 15.5218 3.12625 15.4784 3.34448C15.435 3.56271 15.3278 3.76316 15.1705 3.9205C15.0132 4.07783 14.8127 4.18498 14.5945 4.22838C14.3762 4.27179 14.1501 4.24951 13.9445 4.16437C13.7389 4.07922 13.5632 3.93502 13.4396 3.75002C13.316 3.56501 13.25 3.34751 13.25 3.125C13.25 2.82663 13.3685 2.54048 13.5795 2.32951C13.7905 2.11853 14.0766 2 14.375 2ZM16.5425 11.4556C16.1615 11.2455 15.8258 10.9622 15.5544 10.6222C15.283 10.2821 15.0813 9.89184 14.9609 9.47375C14.7116 8.61617 14.1906 7.86269 13.4763 7.32654C12.7621 6.79039 11.8931 6.50053 11 6.50053C10.1069 6.50053 9.23792 6.79039 8.52366 7.32654C7.8094 7.86269 7.28843 8.61617 7.03906 9.47375C6.79818 10.315 6.23345 11.0264 5.46875 11.4519C4.73518 11.8488 4.15487 12.479 3.81962 13.2427C3.48437 14.0065 3.41331 14.8602 3.61768 15.6688C3.82205 16.4775 4.29018 17.1949 4.94804 17.7077C5.60589 18.2205 6.41592 18.4993 7.25 18.5C7.74984 18.5014 8.24479 18.4016 8.705 18.2066C10.1722 17.6015 11.8193 17.6015 13.2866 18.2066C14.1753 18.5931 15.1791 18.6205 16.0876 18.2832C16.9961 17.9458 17.7387 17.2698 18.1598 16.3969C18.5808 15.5241 18.6476 14.5221 18.3461 13.6011C18.0446 12.68 17.3982 11.9115 16.5425 11.4566V11.4556ZM14.75 17C14.4455 17.0003 14.1441 16.9387 13.8641 16.8191C12.0271 16.0603 9.96442 16.0603 8.1275 16.8191C7.59369 17.0489 6.99164 17.0633 6.44747 16.8592C5.9033 16.655 5.45923 16.2483 5.20827 15.724C4.95731 15.1998 4.91893 14.5988 5.10118 14.0469C5.28342 13.4951 5.67215 13.0351 6.18594 12.7634C6.73835 12.4584 7.22521 12.0474 7.61868 11.554C8.01216 11.0607 8.30452 10.4946 8.47906 9.88813C8.63756 9.34212 8.96904 8.86233 9.42366 8.52091C9.87828 8.17949 10.4315 7.9949 11 7.9949C11.5685 7.9949 12.1217 8.17949 12.5763 8.52091C13.031 8.86233 13.3624 9.34212 13.5209 9.88813C13.696 10.4957 13.9893 11.0627 14.3839 11.5568C14.7786 12.0508 15.2668 12.4621 15.8206 12.7672C16.263 13.0044 16.6133 13.3828 16.8158 13.842C17.0184 14.3013 17.0616 14.8151 16.9385 15.3017C16.8154 15.7884 16.5331 16.2199 16.1366 16.5276C15.74 16.8353 15.2519 17.0016 14.75 17Z" fill="#212121"/>
</svg>
