<svg width="24" height="17" viewBox="0 0 24 17" fill="none" xmlns="http://www.w3.org/2000/svg">
<path d="M19.5 3.25H2.25V1C2.25 0.801088 2.17098 0.610322 2.03033 0.46967C1.88968 0.329018 1.69891 0.25 1.5 0.25C1.30109 0.25 1.11032 0.329018 0.96967 0.46967C0.829018 0.610322 0.75 0.801088 0.75 1V16C0.75 16.1989 0.829018 16.3897 0.96967 16.5303C1.11032 16.671 1.30109 16.75 1.5 16.75C1.69891 16.75 1.88968 16.671 2.03033 16.5303C2.17098 16.3897 2.25 16.1989 2.25 16V13H21.75V16C21.75 16.1989 21.829 16.3897 21.9697 16.5303C22.1103 16.671 22.3011 16.75 22.5 16.75C22.6989 16.75 22.8897 16.671 23.0303 16.5303C23.171 16.3897 23.25 16.1989 23.25 16V7C23.25 6.00544 22.8549 5.05161 22.1516 4.34835C21.4484 3.64509 20.4946 3.25 19.5 3.25ZM2.25 4.75H9V11.5H2.25V4.75ZM10.5 11.5V4.75H19.5C20.0967 4.75 20.669 4.98705 21.091 5.40901C21.5129 5.83097 21.75 6.40326 21.75 7V11.5H10.5Z" fill="#212121"/>
</svg>
