<svg width="24" height="25" viewBox="0 0 24 25" fill="none" xmlns="http://www.w3.org/2000/svg">
<path d="M20.2502 16.0498C20.3961 16.0498 20.536 16.1078 20.6391 16.2109C20.7422 16.314 20.8002 16.4539 20.8002 16.5998V18.7998C20.8002 18.9457 20.7422 19.0856 20.6391 19.1887C20.536 19.2919 20.3961 19.3498 20.2502 19.3498C20.1043 19.3498 19.9644 19.2919 19.8613 19.1887C19.7581 19.0856 19.7002 18.9457 19.7002 18.7998V16.5998C19.7002 16.4539 19.7581 16.314 19.8613 16.2109C19.9644 16.1078 20.1043 16.0498 20.2502 16.0498ZM22.4502 16.0498C22.5961 16.0498 22.736 16.1078 22.8391 16.2109C22.9422 16.314 23.0002 16.4539 23.0002 16.5998V18.7998C23.0002 18.9457 22.9422 19.0856 22.8391 19.1887C22.736 19.2919 22.5961 19.3498 22.4502 19.3498C22.3043 19.3498 22.1644 19.2919 22.0613 19.1887C21.9581 19.0856 21.9002 18.9457 21.9002 18.7998V16.5998C21.9002 16.4539 21.9581 16.314 22.0613 16.2109C22.1644 16.1078 22.3043 16.0498 22.4502 16.0498Z" fill="#212121"/>
<path fill-rule="evenodd" clip-rule="evenodd" d="M1 17.15C1 16.7124 1.17384 16.2927 1.48327 15.9833C1.79271 15.6738 2.21239 15.5 2.65 15.5H16.95C17.3876 15.5 17.8073 15.6738 18.1167 15.9833C18.4262 16.2927 18.6 16.7124 18.6 17.15V18.25C18.6 18.6876 18.4262 19.1073 18.1167 19.4167C17.8073 19.7262 17.3876 19.9 16.95 19.9H2.65C2.21239 19.9 1.79271 19.7262 1.48327 19.4167C1.17384 19.1073 1 18.6876 1 18.25V17.15ZM2.65 16.6C2.50413 16.6 2.36424 16.6579 2.26109 16.7611C2.15795 16.8642 2.1 17.0041 2.1 17.15V18.25C2.1 18.3959 2.15795 18.5358 2.26109 18.6389C2.36424 18.7421 2.50413 18.8 2.65 18.8H16.95C17.0959 18.8 17.2358 18.7421 17.3389 18.6389C17.4421 18.5358 17.5 18.3959 17.5 18.25V17.15C17.5 17.0041 17.4421 16.8642 17.3389 16.7611C17.2358 16.6579 17.0959 16.6 16.95 16.6H2.65Z" fill="#212121"/>
<path d="M19.6999 4.5C19.554 4.5 19.4141 4.55795 19.311 4.66109C19.2078 4.76424 19.1499 4.90413 19.1499 5.05C19.1499 5.19587 19.2078 5.33576 19.311 5.43891C19.4141 5.54205 19.554 5.6 19.6999 5.6C20.1375 5.6 20.5572 5.77384 20.8666 6.08327C21.1761 6.39271 21.3499 6.81239 21.3499 7.25V8.1245C21.3499 8.47604 21.2103 8.81319 20.9617 9.06177C20.7131 9.31035 20.3759 9.45 20.0244 9.45H19.6999C19.554 9.45 19.4141 9.50795 19.311 9.61109C19.2078 9.71424 19.1499 9.85413 19.1499 10C19.1499 10.1459 19.2078 10.2858 19.311 10.3889C19.4141 10.4921 19.554 10.55 19.6999 10.55C20.2834 10.55 20.843 10.7818 21.2555 11.1944C21.6681 11.6069 21.8999 12.1665 21.8999 12.75V14.4C21.8999 14.5459 21.9578 14.6858 22.061 14.7889C22.1641 14.8921 22.304 14.95 22.4499 14.95C22.5958 14.95 22.7357 14.8921 22.8388 14.7889C22.942 14.6858 22.9999 14.5459 22.9999 14.4V12.75C23.0002 12.2098 22.8678 11.6777 22.6142 11.2007C22.3606 10.7236 21.9937 10.3162 21.5457 10.0143C21.8284 9.78717 22.0564 9.49942 22.2129 9.17232C22.3694 8.84521 22.4504 8.48712 22.4499 8.1245V7.25C22.4499 6.52065 22.1602 5.82118 21.6444 5.30546C21.1287 4.78973 20.4292 4.5 19.6999 4.5Z" fill="#212121"/>
<path d="M15.85 10C15.85 9.56239 16.0238 9.14271 16.3333 8.83327C16.6427 8.52384 17.0624 8.35 17.5 8.35C17.6459 8.35 17.7858 8.29205 17.8889 8.18891C17.9921 8.08576 18.05 7.94587 18.05 7.8C18.05 7.65413 17.9921 7.51424 17.8889 7.41109C17.7858 7.30795 17.6459 7.25 17.5 7.25C16.7707 7.25 16.0712 7.53973 15.5555 8.05546C15.0397 8.57118 14.75 9.27065 14.75 10V10.9999C14.75 11.7292 15.0397 12.4287 15.5555 12.9444C16.0712 13.4602 16.7707 13.7499 17.5 13.7499H19.15C19.2959 13.7499 19.4358 13.8078 19.5389 13.911C19.6421 14.0141 19.7 14.154 19.7 14.2999V14.4C19.7 14.5459 19.7579 14.6858 19.8611 14.7889C19.9642 14.8921 20.1041 14.95 20.25 14.95C20.3959 14.95 20.5358 14.8921 20.6389 14.7889C20.7421 14.6858 20.8 14.5459 20.8 14.4V14.2999C20.8 13.8623 20.6262 13.4426 20.3167 13.1332C20.0073 12.8237 19.5876 12.6499 19.15 12.6499H17.5C17.0624 12.6499 16.6427 12.4761 16.3333 12.1666C16.0238 11.8572 15.85 11.4375 15.85 10.9999V10Z" fill="#212121"/>
</svg>
