<svg width="20" height="21" viewBox="0 0 20 21" fill="none" xmlns="http://www.w3.org/2000/svg">
<path d="M10 0.75C7.41414 0.75 4.93419 1.77723 3.10571 3.60571C1.27723 5.43419 0.25 7.91414 0.25 10.5C0.25 13.0859 1.27723 15.5658 3.10571 17.3943C4.93419 19.2228 7.41414 20.25 10 20.25C12.0166 20.25 14.1344 19.6425 15.6653 18.6253C15.7474 18.5708 15.8179 18.5006 15.8728 18.4188C15.9278 18.337 15.966 18.2452 15.9855 18.1486C16.005 18.052 16.0052 17.9526 15.9862 17.8559C15.9672 17.7592 15.9294 17.6672 15.8748 17.5852C15.8203 17.5031 15.7501 17.4326 15.6683 17.3777C15.5866 17.3227 15.4947 17.2844 15.3982 17.265C15.3016 17.2455 15.2021 17.2453 15.1054 17.2643C15.0087 17.2832 14.9167 17.3211 14.8347 17.3756C13.5625 18.2231 11.7072 18.75 10 18.75C8.3683 18.75 6.77325 18.2661 5.41655 17.3596C4.05984 16.4531 3.00242 15.1646 2.37799 13.6571C1.75357 12.1496 1.59019 10.4908 1.90852 8.8905C2.22685 7.29016 3.01259 5.82015 4.16637 4.66637C5.32015 3.51259 6.79016 2.72685 8.3905 2.40852C9.99085 2.09019 11.6496 2.25357 13.1571 2.87799C14.6646 3.50242 15.9531 4.55984 16.8596 5.91655C17.7661 7.27325 18.25 8.8683 18.25 10.5C18.25 12.9797 17.23 13.5 16.375 13.5C15.52 13.5 14.5 12.9797 14.5 10.5V6.75C14.5 6.55109 14.421 6.36032 14.2803 6.21967C14.1397 6.07902 13.9489 6 13.75 6C13.5511 6 13.3603 6.07902 13.2197 6.21967C13.079 6.36032 13 6.55109 13 6.75V7.14937C12.327 6.54593 11.4878 6.15918 10.5918 6.03951C9.69576 5.91983 8.78449 6.07277 7.97666 6.47842C7.16883 6.88406 6.50189 7.5236 6.06273 8.31371C5.62357 9.10382 5.43255 10.0079 5.51455 10.9081C5.59656 11.8083 5.94778 12.663 6.52247 13.3608C7.09716 14.0585 7.86867 14.567 8.7365 14.82C9.60433 15.073 10.5282 15.0588 11.3879 14.7792C12.2475 14.4996 13.003 13.9676 13.5559 13.2525C14.1184 14.3775 15.0887 15 16.375 15C18.4881 15 19.75 13.3181 19.75 10.5C19.7473 7.91498 18.7192 5.43661 16.8913 3.60872C15.0634 1.78084 12.585 0.75273 10 0.75ZM10 13.5C9.40666 13.5 8.82664 13.3241 8.33329 12.9944C7.83994 12.6648 7.45542 12.1962 7.22836 11.6481C7.0013 11.0999 6.94189 10.4967 7.05764 9.91473C7.1734 9.33279 7.45912 8.79824 7.87868 8.37868C8.29824 7.95912 8.83279 7.6734 9.41473 7.55764C9.99667 7.44189 10.5999 7.5013 11.1481 7.72836C11.6962 7.95542 12.1648 8.33994 12.4944 8.83329C12.8241 9.32664 13 9.90666 13 10.5C13 11.2956 12.6839 12.0587 12.1213 12.6213C11.5587 13.1839 10.7956 13.5 10 13.5Z" fill="#212121"/>
</svg>
