<svg width="24" height="25" viewBox="0 0 24 25" fill="none" xmlns="http://www.w3.org/2000/svg">
<path d="M20.2892 4.2124C19.3528 3.27604 18.0828 2.75 16.7586 2.75C15.4343 2.75 14.1643 3.27604 13.2279 4.2124L3.71232 13.7271C2.79553 14.6675 2.28615 15.9312 2.29454 17.2445C2.30292 18.5578 2.82839 19.8149 3.75712 20.7435C4.68585 21.6721 5.94304 22.1974 7.25634 22.2057C8.56964 22.2139 9.83331 21.7043 10.7736 20.7874L20.2901 11.2727C21.2249 10.3356 21.7498 9.06599 21.7497 7.74237C21.7495 6.41874 21.2243 5.14924 20.2892 4.2124ZM9.71326 19.7271C9.05821 20.3823 8.16974 20.7504 7.24328 20.7505C6.31682 20.7506 5.42827 20.3826 4.7731 19.7276C4.11793 19.0725 3.74982 18.184 3.74973 17.2576C3.74964 16.3311 4.11759 15.4426 4.77263 14.7874L8.99982 10.5602L13.9404 15.4999L9.71326 19.7271ZM19.2289 10.2124L14.9998 14.4396L10.0611 9.4999L14.2892 5.27272C14.9468 4.63027 15.8312 4.27299 16.7506 4.27836C17.6699 4.28373 18.5501 4.65132 19.2002 5.30141C19.8503 5.9515 20.2179 6.83166 20.2232 7.75101C20.2286 8.67036 19.8713 9.55476 19.2289 10.2124ZM17.7823 8.21928C17.8521 8.28893 17.9074 8.37165 17.9451 8.4627C17.9829 8.55375 18.0023 8.65134 18.0023 8.7499C18.0023 8.84847 17.9829 8.94606 17.9451 9.03711C17.9074 9.12816 17.8521 9.21088 17.7823 9.28053L15.5323 11.5305C15.4626 11.6002 15.3799 11.6554 15.2889 11.693C15.1979 11.7307 15.1003 11.75 15.0018 11.75C14.9033 11.7499 14.8058 11.7305 14.7148 11.6928C14.6238 11.655 14.5412 11.5997 14.4715 11.5301C14.4019 11.4604 14.3467 11.3777 14.309 11.2866C14.2714 11.1956 14.252 11.0981 14.2521 10.9996C14.2521 10.9011 14.2716 10.8035 14.3093 10.7126C14.347 10.6216 14.4023 10.5389 14.472 10.4693L16.722 8.21928C16.8626 8.07873 17.0533 7.99978 17.2522 7.99978C17.451 7.99978 17.6417 8.07873 17.7823 8.21928Z" fill="#212121"/>
</svg>
