<svg width="20" height="20" viewBox="0 0 20 20" fill="none" xmlns="http://www.w3.org/2000/svg">
<path d="M19.4999 7.5C19.4999 7.69891 19.4209 7.88968 19.2803 8.03033C19.1396 8.17098 18.9489 8.25 18.7499 8.25H17.2499V9.75C17.2499 9.94891 17.1709 10.1397 17.0303 10.2803C16.8896 10.421 16.6989 10.5 16.4999 10.5C16.301 10.5 16.1103 10.421 15.9696 10.2803C15.829 10.1397 15.7499 9.94891 15.7499 9.75V8.25H14.2499C14.051 8.25 13.8603 8.17098 13.7196 8.03033C13.579 7.88968 13.4999 7.69891 13.4999 7.5C13.4999 7.30109 13.579 7.11032 13.7196 6.96967C13.8603 6.82902 14.051 6.75 14.2499 6.75H15.7499V5.25C15.7499 5.05109 15.829 4.86032 15.9696 4.71967C16.1103 4.57902 16.301 4.5 16.4999 4.5C16.6989 4.5 16.8896 4.57902 17.0303 4.71967C17.1709 4.86032 17.2499 5.05109 17.2499 5.25V6.75H18.7499C18.9489 6.75 19.1396 6.82902 19.2803 6.96967C19.4209 7.11032 19.4999 7.30109 19.4999 7.5ZM10.4999 3.75H11.2499V4.5C11.2499 4.69891 11.329 4.88968 11.4696 5.03033C11.6103 5.17098 11.801 5.25 11.9999 5.25C12.1989 5.25 12.3896 5.17098 12.5303 5.03033C12.6709 4.88968 12.7499 4.69891 12.7499 4.5V3.75H13.4999C13.6989 3.75 13.8896 3.67098 14.0303 3.53033C14.1709 3.38968 14.2499 3.19891 14.2499 3C14.2499 2.80109 14.1709 2.61032 14.0303 2.46967C13.8896 2.32902 13.6989 2.25 13.4999 2.25H12.7499V1.5C12.7499 1.30109 12.6709 1.11032 12.5303 0.96967C12.3896 0.829018 12.1989 0.75 11.9999 0.75C11.801 0.75 11.6103 0.829018 11.4696 0.96967C11.329 1.11032 11.2499 1.30109 11.2499 1.5V2.25H10.4999C10.301 2.25 10.1103 2.32902 9.96962 2.46967C9.82897 2.61032 9.74995 2.80109 9.74995 3C9.74995 3.19891 9.82897 3.38968 9.96962 3.53033C10.1103 3.67098 10.301 3.75 10.4999 3.75ZM17.3221 12.8438C17.4094 12.9454 17.4679 13.0686 17.4915 13.2005C17.5151 13.3324 17.5029 13.4682 17.4562 13.5938C16.9358 15.013 16.0662 16.2784 14.9278 17.273C13.7894 18.2676 12.4188 18.9594 10.9426 19.2846C9.46626 19.6098 7.93184 19.558 6.48088 19.1338C5.02993 18.7096 3.7092 17.9267 2.64058 16.8575C1.57196 15.7883 0.789876 14.4671 0.36651 13.0159C-0.0568559 11.5647 -0.107866 10.0303 0.218189 8.55416C0.544243 7.07806 1.23686 5.70786 2.23211 4.57002C3.22736 3.43218 4.49318 2.56337 5.91276 2.04375C6.03771 1.99799 6.17258 1.9863 6.30354 2.00987C6.4345 2.03344 6.55683 2.09142 6.65798 2.17788C6.75913 2.26434 6.83546 2.37614 6.87914 2.50184C6.92281 2.62753 6.93226 2.76258 6.90651 2.89313C6.64369 4.22341 6.71255 5.59795 7.10701 6.8953C7.50147 8.19266 8.20939 9.37289 9.16823 10.3317C10.1271 11.2906 11.3073 11.9985 12.6046 12.3929C13.902 12.7874 15.2765 12.8563 16.6068 12.5934C16.7375 12.5679 16.8727 12.5776 16.9984 12.6216C17.1241 12.6656 17.2359 12.7423 17.3221 12.8438ZM15.5043 14.2388C15.3365 14.2472 15.1678 14.2519 14.9999 14.2519C12.4146 14.2491 9.93595 13.2208 8.10801 11.3925C6.28007 9.56419 5.25218 7.08535 5.24995 4.5C5.24995 4.33219 5.24995 4.16344 5.26307 3.99563C4.26518 4.56985 3.41289 5.36611 2.77223 6.32271C2.13156 7.2793 1.71973 8.37055 1.56864 9.51191C1.41754 10.6533 1.53125 11.8141 1.90093 12.9044C2.27062 13.9948 2.88637 14.9854 3.70047 15.7995C4.51457 16.6136 5.50517 17.2293 6.59552 17.599C7.68586 17.9687 8.84668 18.0824 9.98804 17.9313C11.1294 17.7802 12.2206 17.3684 13.1772 16.7277C14.1338 16.0871 14.9301 15.2348 15.5043 14.2369V14.2388Z" fill="#212121"/>
</svg>
