<svg width="50" height="52" viewBox="0 0 50 52" fill="none" xmlns="http://www.w3.org/2000/svg">
<path d="M49.9999 26.0787C49.9999 23.9812 49.8297 22.4506 49.4613 20.8633H25.51V30.3303H39.5689C39.2856 32.683 37.7549 36.2261 34.3535 38.6069L34.3058 38.9239L41.8788 44.7906L42.4035 44.8429C47.222 40.3928 49.9999 33.8451 49.9999 26.0787Z" fill="#4285F4"/>
<path d="M25.5104 51.0196C32.3981 51.0196 38.1804 48.7519 42.4039 44.8404L34.3539 38.6044C32.1998 40.1067 29.3085 41.1555 25.5104 41.1555C18.7644 41.1555 13.0388 36.7055 10.9978 30.5547L10.6986 30.5801L2.82417 36.6742L2.72119 36.9605C6.91617 45.2938 15.533 51.0196 25.5104 51.0196Z" fill="#34A853"/>
<path d="M10.9977 30.5545C10.4591 28.9672 10.1474 27.2664 10.1474 25.5091C10.1474 23.7516 10.4591 22.051 10.9693 20.4637L10.9551 20.1256L2.9819 13.9336L2.72103 14.0577C0.992077 17.5158 0 21.3991 0 25.5091C0 29.619 0.992077 33.5022 2.72103 36.9603L10.9977 30.5545Z" fill="#FBBC05"/>
<path d="M25.5104 9.86391C30.3006 9.86391 33.5319 11.9331 35.3743 13.6622L42.5739 6.63267C38.1522 2.52269 32.3981 0 25.5104 0C15.533 0 6.91617 5.7256 2.72119 14.0589L10.9695 20.4649C13.0388 14.3141 18.7644 9.86391 25.5104 9.86391Z" fill="#EB4335"/>
</svg>
