<svg width="52" height="57" viewBox="0 0 52 57" fill="none" xmlns="http://www.w3.org/2000/svg">
<path d="M26 0C11.6402 0 0 11.6402 0 26C0 40.3598 11.6402 52 26 52C40.3598 52 52 40.3598 52 26C52 11.6402 40.3598 0 26 0Z" fill="url(#paint0_linear_2306_14489)"/>
<path d="M29.7454 36.5262H36.8013L37.9096 29.3585H29.7454V25.4406C29.7454 22.4634 30.7187 19.8229 33.5037 19.8229H37.9791V13.5685C37.1926 13.4622 35.5295 13.2305 32.3873 13.2305C25.8249 13.2305 21.9779 16.6957 21.9779 24.5914V29.3598H15.2314V36.5275H21.9765V56.2285C23.3125 56.4275 24.6661 56.5638 26.0552 56.5638C27.3107 56.5638 28.5363 56.4493 29.7454 56.2857V36.5262Z" fill="white"/>
<defs>
<linearGradient id="paint0_linear_2306_14489" x1="7.7909" y1="7.7909" x2="47.5995" y2="47.5995" gradientUnits="userSpaceOnUse">
<stop stop-color="#2AA4F4"/>
<stop offset="1" stop-color="#007AD9"/>
</linearGradient>
</defs>
</svg>
