<svg width="33" height="33" viewBox="0 0 33 33" fill="none" xmlns="http://www.w3.org/2000/svg">
<path d="M18.3799 16.5001L24.1132 10.7801C24.3643 10.529 24.5054 10.1885 24.5054 9.83342C24.5054 9.47835 24.3643 9.13782 24.1132 8.88675C23.8622 8.63568 23.5217 8.49463 23.1666 8.49463C22.8115 8.49463 22.471 8.63568 22.2199 8.88675L16.4999 14.6201L10.7799 8.88675C10.5288 8.63568 10.1883 8.49463 9.83325 8.49463C9.47818 8.49463 9.13766 8.63568 8.88659 8.88675C8.63551 9.13782 8.49446 9.47835 8.49446 9.83342C8.49446 10.1885 8.63551 10.529 8.88659 10.7801L14.6199 16.5001L8.88659 22.2201C8.76161 22.344 8.66242 22.4915 8.59473 22.654C8.52704 22.8165 8.49219 22.9907 8.49219 23.1667C8.49219 23.3428 8.52704 23.517 8.59473 23.6795C8.66242 23.842 8.76161 23.9895 8.88659 24.1134C9.01054 24.2384 9.158 24.3376 9.32048 24.4053C9.48296 24.473 9.65724 24.5078 9.83325 24.5078C10.0093 24.5078 10.1835 24.473 10.346 24.4053C10.5085 24.3376 10.656 24.2384 10.7799 24.1134L16.4999 18.3801L22.2199 24.1134C22.3439 24.2384 22.4913 24.3376 22.6538 24.4053C22.8163 24.473 22.9906 24.5078 23.1666 24.5078C23.3426 24.5078 23.5169 24.473 23.6794 24.4053C23.8418 24.3376 23.9893 24.2384 24.1132 24.1134C24.2382 23.9895 24.3374 23.842 24.4051 23.6795C24.4728 23.517 24.5076 23.3428 24.5076 23.1667C24.5076 22.9907 24.4728 22.8165 24.4051 22.654C24.3374 22.4915 24.2382 22.344 24.1132 22.2201L18.3799 16.5001Z" fill="#F75555"/>
</svg>
