<svg width="32" height="33" viewBox="0 0 32 33" fill="none" xmlns="http://www.w3.org/2000/svg">
<path fill-rule="evenodd" clip-rule="evenodd" d="M21.1332 3.8342C21.9745 3.8342 22.8145 3.95286 23.6132 4.22086C28.5345 5.82086 30.3079 11.2209 28.8265 15.9409C27.9865 18.3529 26.6132 20.5542 24.8145 22.3529C22.2399 24.8462 19.4145 27.0595 16.3732 28.9662L16.0399 29.1675L15.6932 28.9529C12.6412 27.0595 9.79986 24.8462 7.20119 22.3395C5.41453 20.5409 4.03986 18.3529 3.18653 15.9409C1.67986 11.2209 3.45319 5.82086 8.42786 4.19286C8.81453 4.05953 9.21319 3.9662 9.61319 3.9142H9.77319C10.1479 3.85953 10.5199 3.8342 10.8932 3.8342H11.0399C11.8799 3.85953 12.6932 4.0062 13.4812 4.2742H13.5599C13.6132 4.29953 13.6532 4.32753 13.6799 4.35286C13.9745 4.44753 14.2532 4.5542 14.5199 4.70086L15.0265 4.92753C15.149 4.99283 15.2864 5.0926 15.4051 5.17882C15.4804 5.23346 15.5481 5.28265 15.5999 5.3142C15.6216 5.32703 15.6437 5.33994 15.666 5.35296C15.7804 5.41969 15.8994 5.48921 15.9999 5.5662C17.4812 4.4342 19.2799 3.82086 21.1332 3.8342ZM24.6799 13.4342C25.2265 13.4195 25.6932 12.9809 25.7332 12.4195V12.2609C25.7732 10.3929 24.6412 8.70086 22.9199 8.04752C22.3732 7.85952 21.7732 8.15419 21.5732 8.71419C21.3865 9.27419 21.6799 9.88752 22.2399 10.0862C23.0945 10.4062 23.6665 11.2475 23.6665 12.1795V12.2209C23.6412 12.5262 23.7332 12.8209 23.9199 13.0475C24.1065 13.2742 24.3865 13.4062 24.6799 13.4342Z" fill="white"/>
</svg>
