<svg width="32" height="32" viewBox="0 0 32 32" fill="none" xmlns="http://www.w3.org/2000/svg">
<path fill-rule="evenodd" clip-rule="evenodd" d="M21.1332 3.3342C21.9745 3.3342 22.8145 3.45286 23.6132 3.72086C28.5345 5.32086 30.3079 10.7209 28.8265 15.4409C27.9865 17.8529 26.6132 20.0542 24.8145 21.8529C22.2399 24.3462 19.4145 26.5595 16.3732 28.4662L16.0399 28.6675L15.6932 28.4529C12.6412 26.5595 9.79986 24.3462 7.20119 21.8395C5.41453 20.0409 4.03986 17.8529 3.18653 15.4409C1.67986 10.7209 3.45319 5.32086 8.42786 3.69286C8.81453 3.55953 9.21319 3.4662 9.61319 3.4142H9.77319C10.1479 3.35953 10.5199 3.3342 10.8932 3.3342H11.0399C11.8799 3.35953 12.6932 3.5062 13.4812 3.7742H13.5599C13.6132 3.79953 13.6532 3.82753 13.6799 3.85286C13.9745 3.94753 14.2532 4.0542 14.5199 4.20086L15.0265 4.42753C15.149 4.49283 15.2864 4.5926 15.4051 4.67882C15.4804 4.73346 15.5481 4.78265 15.5999 4.8142C15.6216 4.82703 15.6437 4.83994 15.666 4.85296C15.7804 4.91969 15.8994 4.98921 15.9999 5.0662C17.4812 3.9342 19.2799 3.32086 21.1332 3.3342ZM24.6799 12.9342C25.2265 12.9195 25.6932 12.4809 25.7332 11.9195V11.7609C25.7732 9.89286 24.6412 8.20086 22.9199 7.54752C22.3732 7.35952 21.7732 7.65419 21.5732 8.21419C21.3865 8.77419 21.6799 9.38752 22.2399 9.58619C23.0945 9.90619 23.6665 10.7475 23.6665 11.6795V11.7209C23.6412 12.0262 23.7332 12.3209 23.9199 12.5475C24.1065 12.7742 24.3865 12.9062 24.6799 12.9342Z" fill="#DD101E"/>
</svg>
